<?xml version="1.0" encoding="utf-8"?>
<svg xmlns="http://www.w3.org/2000/svg" id="Layer_1" data-name="Layer 1" width="154.02997" height="200.16998" viewBox="0 0 154.02997 200.16998">
  <defs>
    <style>
      .cls-1 {
        fill: #475a69;
      }
    </style>
  </defs>
  <path class="cls-1" d="M184.055,27.915a20.96193,20.96193,0,0,0-1.51,41.87v39.27H73.375V69.785a20.91043,20.91043,0,1,0-4-.1v40.8a1.96406,1.96406,0,0,0,.38,1.16,2.00155,2.00155,0,0,0,1.91,1.41h55.01v73.2a21.01006,21.01006,0,1,0,4,0v-73.2h53.63a1.99306,1.99306,0,0,0,2-2v-.03a2.03838,2.03838,0,0,0,.24-.96V69.695a20.96445,20.96445,0,0,0-2.49-41.78ZM54.985,48.875a16.965,16.965,0,1,1,16.97,16.97A16.98358,16.98358,0,0,1,54.985,48.875Zm90.7,158.25a16.965,16.965,0,1,1-16.97-16.97A16.98361,16.98361,0,0,1,145.685,207.125Zm38.37-141.28a16.965,16.965,0,1,1,16.96-16.97A16.98581,16.98581,0,0,1,184.055,65.845Z" transform="translate(-50.98502 -27.91501)"/>
</svg>